<svg width="535" height="484" viewBox="0 0 535 484" fill="none" xmlns="http://www.w3.org/2000/svg">
<path d="M0 255.177C32.059 188.879 64.118 122.58 86.3336 80.7195C108.549 38.8587 119.95 23.4448 126.804 15.2868C133.658 7.12881 135.62 6.69385 127.216 50.0309C118.811 93.3679 99.9814 180.49 87.7686 244.975C75.5558 309.461 70.5307 348.669 67.2267 381.819C61.3875 440.407 61.0982 476.776 61.9891 490.966C62.3176 496.199 64.3388 496.413 66.129 495.659C67.9191 494.906 69.9137 492.918 92.5634 449.852C115.213 406.786 158.458 322.702 199.641 253.019C240.824 183.336 278.635 130.602 299.282 102.31C322.069 71.0842 326.852 68.1145 330.304 69.4508C332.044 70.1243 331.867 78.8227 326.101 137.199C320.335 195.574 308.503 305.418 302.273 369.205C296.043 432.992 295.774 447.395 314.166 409.655C332.558 371.915 369.618 281.596 399.163 217.62C428.708 153.644 449.614 118.747 462.228 98.4785C478.239 72.7522 483.752 67.7354 485.494 69.8168C486.836 71.421 484.983 80.7875 474.925 143.931C464.866 207.075 445.605 325.411 436.463 385.163C427.322 444.914 428.884 442.495 441.575 418.925C454.265 395.355 478.035 350.708 501.092 312.01C524.148 273.313 545.769 241.918 557.862 224.775C571.704 205.152 576.415 202.328 580.278 202.285C581.694 202.269 581.45 207.661 575.634 241.98C569.819 276.299 558.298 340.761 551.809 380.007C545.319 419.252 544.211 431.328 543.067 449.854C540.777 492.989 539.079 521.724 537.904 528.729C537.246 532.353 536.466 536.119 535.662 540" stroke="#FFFDFC" stroke-opacity="0.5" stroke-width="22" stroke-linecap="round"/>
</svg>
